<?xml version="1.0" encoding="UTF-8"?>
<svg xmlns="http://www.w3.org/2000/svg" xmlns:xlink="http://www.w3.org/1999/xlink" width="5000" height="4500" viewBox="0 0 5000 4500">
<defs>
<clipPath id="clip-0">
<path clip-rule="nonzero" d="M 1985 4319 L 3018 4319 L 3018 4413 L 1985 4413 Z M 1985 4319 "/>
</clipPath>
<clipPath id="clip-1">
<path clip-rule="nonzero" d="M 2501.898438 4412.230469 C 2216.949219 4412.230469 1985.941406 4391.421875 1985.941406 4365.738281 C 1985.941406 4340.058594 2216.949219 4319.25 2501.898438 4319.25 C 2786.859375 4319.25 3017.878906 4340.058594 3017.878906 4365.738281 C 3017.878906 4391.421875 2786.859375 4412.230469 2501.898438 4412.230469 "/>
</clipPath>
<clipPath id="clip-2">
<path clip-rule="nonzero" d="M 2501.898438 4412.230469 C 2216.949219 4412.230469 1985.941406 4391.421875 1985.941406 4365.738281 C 1985.941406 4340.058594 2216.949219 4319.25 2501.898438 4319.25 C 2786.859375 4319.25 3017.878906 4340.058594 3017.878906 4365.738281 C 3017.878906 4391.421875 2786.859375 4412.230469 2501.898438 4412.230469 "/>
</clipPath>
<radialGradient id="radial-pattern-0" gradientUnits="userSpaceOnUse" cx="0" cy="0" fx="0" fy="0" r="281.2178" gradientTransform="matrix(1.834674, 0, 0, 0.165326, 2501.91, 4365.74)">
<stop offset="0" stop-color="rgb(59.002686%, 59.394836%, 59.313965%)" stop-opacity="1"/>
<stop offset="0.0078125" stop-color="rgb(59.121704%, 59.632874%, 59.577942%)" stop-opacity="1"/>
<stop offset="0.0117188" stop-color="rgb(59.20105%, 59.791565%, 59.753418%)" stop-opacity="1"/>
<stop offset="0.015625" stop-color="rgb(59.346008%, 59.94873%, 59.941101%)" stop-opacity="1"/>
<stop offset="0.0195312" stop-color="rgb(59.562683%, 60.10437%, 60.139465%)" stop-opacity="1"/>
<stop offset="0.0234375" stop-color="rgb(59.785461%, 60.26001%, 60.340881%)" stop-opacity="1"/>
<stop offset="0.0273438" stop-color="rgb(60.005188%, 60.414124%, 60.540771%)" stop-opacity="1"/>
<stop offset="0.03125" stop-color="rgb(60.206604%, 60.546875%, 60.688782%)" stop-opacity="1"/>
<stop offset="0.0351562" stop-color="rgb(60.380554%, 60.652161%, 60.777283%)" stop-opacity="1"/>
<stop offset="0.0390625" stop-color="rgb(60.552979%, 60.75592%, 60.85968%)" stop-opacity="1"/>
<stop offset="0.0429688" stop-color="rgb(60.723877%, 60.85968%, 60.942078%)" stop-opacity="1"/>
<stop offset="0.046875" stop-color="rgb(60.894775%, 60.992432%, 61.062622%)" stop-opacity="1"/>
<stop offset="0.0507812" stop-color="rgb(61.064148%, 61.16333%, 61.227417%)" stop-opacity="1"/>
<stop offset="0.0546875" stop-color="rgb(61.233521%, 61.341858%, 61.404419%)" stop-opacity="1"/>
<stop offset="0.0585938" stop-color="rgb(61.402893%, 61.51886%, 61.579895%)" stop-opacity="1"/>
<stop offset="0.0625" stop-color="rgb(61.572266%, 61.697388%, 61.732483%)" stop-opacity="1"/>
<stop offset="0.0664062" stop-color="rgb(61.743164%, 61.875916%, 61.849976%)" stop-opacity="1"/>
<stop offset="0.0703125" stop-color="rgb(61.912537%, 62.054443%, 61.959839%)" stop-opacity="1"/>
<stop offset="0.0742188" stop-color="rgb(62.083435%, 62.234497%, 62.069702%)" stop-opacity="1"/>
<stop offset="0.078125" stop-color="rgb(62.243652%, 62.402344%, 62.216187%)" stop-opacity="1"/>
<stop offset="0.0820312" stop-color="rgb(62.387085%, 62.553406%, 62.411499%)" stop-opacity="1"/>
<stop offset="0.0859375" stop-color="rgb(62.524414%, 62.698364%, 62.625122%)" stop-opacity="1"/>
<stop offset="0.0898438" stop-color="rgb(62.661743%, 62.843323%, 62.837219%)" stop-opacity="1"/>
<stop offset="0.09375" stop-color="rgb(62.837219%, 63.005066%, 63.038635%)" stop-opacity="1"/>
<stop offset="0.0976562" stop-color="rgb(63.07373%, 63.194275%, 63.221741%)" stop-opacity="1"/>
<stop offset="0.101562" stop-color="rgb(63.334656%, 63.392639%, 63.398743%)" stop-opacity="1"/>
<stop offset="0.105469" stop-color="rgb(63.595581%, 63.592529%, 63.577271%)" stop-opacity="1"/>
<stop offset="0.109375" stop-color="rgb(63.830566%, 63.809204%, 63.764954%)" stop-opacity="1"/>
<stop offset="0.113281" stop-color="rgb(64.022827%, 64.054871%, 63.969421%)" stop-opacity="1"/>
<stop offset="0.117188" stop-color="rgb(64.1922%, 64.31427%, 64.179993%)" stop-opacity="1"/>
<stop offset="0.121094" stop-color="rgb(64.364624%, 64.575195%, 64.39209%)" stop-opacity="1"/>
<stop offset="0.125" stop-color="rgb(64.558411%, 64.822388%, 64.596558%)" stop-opacity="1"/>
<stop offset="0.128906" stop-color="rgb(64.797974%, 65.040588%, 64.787292%)" stop-opacity="1"/>
<stop offset="0.132812" stop-color="rgb(65.060425%, 65.245056%, 64.968872%)" stop-opacity="1"/>
<stop offset="0.136719" stop-color="rgb(65.324402%, 65.449524%, 65.153503%)" stop-opacity="1"/>
<stop offset="0.140625" stop-color="rgb(65.568542%, 65.65094%, 65.338135%)" stop-opacity="1"/>
<stop offset="0.144531" stop-color="rgb(65.769958%, 65.846252%, 65.525818%)" stop-opacity="1"/>
<stop offset="0.148438" stop-color="rgb(65.943909%, 66.033936%, 65.715027%)" stop-opacity="1"/>
<stop offset="0.152344" stop-color="rgb(66.119385%, 66.22467%, 65.905762%)" stop-opacity="1"/>
<stop offset="0.15625" stop-color="rgb(66.294861%, 66.400146%, 66.078186%)" stop-opacity="1"/>
<stop offset="0.160156" stop-color="rgb(66.471863%, 66.537476%, 66.200256%)" stop-opacity="1"/>
<stop offset="0.164062" stop-color="rgb(66.648865%, 66.651917%, 66.293335%)" stop-opacity="1"/>
<stop offset="0.167969" stop-color="rgb(66.827393%, 66.764832%, 66.384888%)" stop-opacity="1"/>
<stop offset="0.171875" stop-color="rgb(67.004395%, 66.888428%, 66.491699%)" stop-opacity="1"/>
<stop offset="0.175781" stop-color="rgb(67.181396%, 67.054749%, 66.650391%)" stop-opacity="1"/>
<stop offset="0.179688" stop-color="rgb(67.356873%, 67.245483%, 66.842651%)" stop-opacity="1"/>
<stop offset="0.183594" stop-color="rgb(67.5354%, 67.43927%, 67.036438%)" stop-opacity="1"/>
<stop offset="0.1875" stop-color="rgb(67.710876%, 67.631531%, 67.230225%)" stop-opacity="1"/>
<stop offset="0.191406" stop-color="rgb(67.889404%, 67.825317%, 67.425537%)" stop-opacity="1"/>
<stop offset="0.195312" stop-color="rgb(68.06488%, 68.019104%, 67.62085%)" stop-opacity="1"/>
<stop offset="0.199219" stop-color="rgb(68.243408%, 68.214417%, 67.817688%)" stop-opacity="1"/>
<stop offset="0.203125" stop-color="rgb(68.42041%, 68.408203%, 68.013%)" stop-opacity="1"/>
<stop offset="0.207031" stop-color="rgb(68.598938%, 68.603516%, 68.211365%)" stop-opacity="1"/>
<stop offset="0.210938" stop-color="rgb(68.77594%, 68.798828%, 68.408203%)" stop-opacity="1"/>
<stop offset="0.214844" stop-color="rgb(68.955994%, 68.995667%, 68.606567%)" stop-opacity="1"/>
<stop offset="0.21875" stop-color="rgb(69.128418%, 69.186401%, 68.803406%)" stop-opacity="1"/>
<stop offset="0.222656" stop-color="rgb(69.258118%, 69.329834%, 68.989563%)" stop-opacity="1"/>
<stop offset="0.226562" stop-color="rgb(69.346619%, 69.430542%, 69.163513%)" stop-opacity="1"/>
<stop offset="0.230469" stop-color="rgb(69.436646%, 69.529724%, 69.337463%)" stop-opacity="1"/>
<stop offset="0.234375" stop-color="rgb(69.526672%, 69.631958%, 69.509888%)" stop-opacity="1"/>
<stop offset="0.238281" stop-color="rgb(69.664001%, 69.78302%, 69.659424%)" stop-opacity="1"/>
<stop offset="0.242188" stop-color="rgb(69.842529%, 69.979858%, 69.787598%)" stop-opacity="1"/>
<stop offset="0.246094" stop-color="rgb(70.024109%, 70.178223%, 69.915771%)" stop-opacity="1"/>
<stop offset="0.25" stop-color="rgb(70.202637%, 70.375061%, 70.043945%)" stop-opacity="1"/>
<stop offset="0.253906" stop-color="rgb(70.474243%, 70.594788%, 70.207214%)" stop-opacity="1"/>
<stop offset="0.261719" stop-color="rgb(70.835876%, 70.834351%, 70.405579%)" stop-opacity="1"/>
<stop offset="0.269531" stop-color="rgb(71.19751%, 71.153259%, 70.704651%)" stop-opacity="1"/>
<stop offset="0.277344" stop-color="rgb(71.559143%, 71.554565%, 71.113586%)" stop-opacity="1"/>
<stop offset="0.285156" stop-color="rgb(71.922302%, 71.885681%, 71.499634%)" stop-opacity="1"/>
<stop offset="0.292969" stop-color="rgb(72.285461%, 72.138977%, 71.856689%)" stop-opacity="1"/>
<stop offset="0.300781" stop-color="rgb(72.650146%, 72.45636%, 72.172546%)" stop-opacity="1"/>
<stop offset="0.308594" stop-color="rgb(73.014832%, 72.85614%, 72.444153%)" stop-opacity="1"/>
<stop offset="0.316406" stop-color="rgb(73.381042%, 73.196411%, 72.75238%)" stop-opacity="1"/>
<stop offset="0.324219" stop-color="rgb(73.745728%, 73.458862%, 73.109436%)" stop-opacity="1"/>
<stop offset="0.332031" stop-color="rgb(74.113464%, 73.777771%, 73.434448%)" stop-opacity="1"/>
<stop offset="0.339844" stop-color="rgb(74.481201%, 74.177551%, 73.71521%)" stop-opacity="1"/>
<stop offset="0.347656" stop-color="rgb(74.848938%, 74.526978%, 73.965454%)" stop-opacity="1"/>
<stop offset="0.355469" stop-color="rgb(75.216675%, 74.795532%, 74.183655%)" stop-opacity="1"/>
<stop offset="0.363281" stop-color="rgb(75.585938%, 75.112915%, 74.481201%)" stop-opacity="1"/>
<stop offset="0.371094" stop-color="rgb(75.956726%, 75.517273%, 74.891663%)" stop-opacity="1"/>
<stop offset="0.378906" stop-color="rgb(76.25885%, 75.863647%, 75.306702%)" stop-opacity="1"/>
<stop offset="0.386719" stop-color="rgb(76.469421%, 76.107788%, 75.692749%)" stop-opacity="1"/>
<stop offset="0.394531" stop-color="rgb(76.646423%, 76.296997%, 75.965881%)" stop-opacity="1"/>
<stop offset="0.398438" stop-color="rgb(76.870728%, 76.493835%, 76.123047%)" stop-opacity="1"/>
<stop offset="0.402344" stop-color="rgb(77.148438%, 76.728821%, 76.264954%)" stop-opacity="1"/>
<stop offset="0.40625" stop-color="rgb(77.427673%, 76.963806%, 76.40686%)" stop-opacity="1"/>
<stop offset="0.410156" stop-color="rgb(77.723694%, 77.288818%, 76.675415%)" stop-opacity="1"/>
<stop offset="0.417969" stop-color="rgb(77.973938%, 77.690125%, 77.099609%)" stop-opacity="1"/>
<stop offset="0.425781" stop-color="rgb(78.222656%, 78.038025%, 77.478027%)" stop-opacity="1"/>
<stop offset="0.433594" stop-color="rgb(78.564453%, 78.323364%, 77.74353%)" stop-opacity="1"/>
<stop offset="0.441406" stop-color="rgb(78.938293%, 78.640747%, 78.039551%)" stop-opacity="1"/>
<stop offset="0.449219" stop-color="rgb(79.315186%, 79.046631%, 78.453064%)" stop-opacity="1"/>
<stop offset="0.457031" stop-color="rgb(79.692078%, 79.43573%, 78.845215%)" stop-opacity="1"/>
<stop offset="0.464844" stop-color="rgb(80.06897%, 79.740906%, 79.124451%)" stop-opacity="1"/>
<stop offset="0.472656" stop-color="rgb(80.444336%, 80.056763%, 79.418945%)" stop-opacity="1"/>
<stop offset="0.480469" stop-color="rgb(80.82428%, 80.462646%, 79.832458%)" stop-opacity="1"/>
<stop offset="0.488281" stop-color="rgb(81.20575%, 80.909729%, 80.300903%)" stop-opacity="1"/>
<stop offset="0.496094" stop-color="rgb(81.587219%, 81.358337%, 80.770874%)" stop-opacity="1"/>
<stop offset="0.503906" stop-color="rgb(81.874084%, 81.695557%, 81.124878%)" stop-opacity="1"/>
<stop offset="0.507812" stop-color="rgb(82.064819%, 81.880188%, 81.34613%)" stop-opacity="1"/>
<stop offset="0.511719" stop-color="rgb(82.252502%, 82.022095%, 81.549072%)" stop-opacity="1"/>
<stop offset="0.515625" stop-color="rgb(82.443237%, 82.162476%, 81.752014%)" stop-opacity="1"/>
<stop offset="0.519531" stop-color="rgb(82.63092%, 82.302856%, 81.954956%)" stop-opacity="1"/>
<stop offset="0.523438" stop-color="rgb(82.873535%, 82.543945%, 82.240295%)" stop-opacity="1"/>
<stop offset="0.535156" stop-color="rgb(83.071899%, 82.774353%, 82.485962%)" stop-opacity="1"/>
<stop offset="0.539062" stop-color="rgb(83.209229%, 82.93457%, 82.621765%)" stop-opacity="1"/>
<stop offset="0.542969" stop-color="rgb(83.39386%, 83.151245%, 82.777405%)" stop-opacity="1"/>
<stop offset="0.546875" stop-color="rgb(83.587646%, 83.378601%, 82.93457%)" stop-opacity="1"/>
<stop offset="0.550781" stop-color="rgb(83.779907%, 83.604431%, 83.091736%)" stop-opacity="1"/>
<stop offset="0.554688" stop-color="rgb(83.972168%, 83.798218%, 83.236694%)" stop-opacity="1"/>
<stop offset="0.558594" stop-color="rgb(84.162903%, 83.94928%, 83.364868%)" stop-opacity="1"/>
<stop offset="0.5625" stop-color="rgb(84.353638%, 84.089661%, 83.486938%)" stop-opacity="1"/>
<stop offset="0.566406" stop-color="rgb(84.544373%, 84.230042%, 83.610535%)" stop-opacity="1"/>
<stop offset="0.570312" stop-color="rgb(84.736633%, 84.402466%, 83.778381%)" stop-opacity="1"/>
<stop offset="0.574219" stop-color="rgb(84.928894%, 84.620667%, 84.005737%)" stop-opacity="1"/>
<stop offset="0.578125" stop-color="rgb(85.124207%, 84.854126%, 84.251404%)" stop-opacity="1"/>
<stop offset="0.582031" stop-color="rgb(85.317993%, 85.08606%, 84.498596%)" stop-opacity="1"/>
<stop offset="0.585938" stop-color="rgb(85.513306%, 85.290527%, 84.706116%)" stop-opacity="1"/>
<stop offset="0.589844" stop-color="rgb(85.704041%, 85.449219%, 84.854126%)" stop-opacity="1"/>
<stop offset="0.59375" stop-color="rgb(85.896301%, 85.592651%, 84.979248%)" stop-opacity="1"/>
<stop offset="0.597656" stop-color="rgb(86.087036%, 85.734558%, 85.10437%)" stop-opacity="1"/>
<stop offset="0.601562" stop-color="rgb(86.347961%, 85.987854%, 85.354614%)" stop-opacity="1"/>
<stop offset="0.613281" stop-color="rgb(86.564636%, 86.228943%, 85.606384%)" stop-opacity="1"/>
<stop offset="0.617188" stop-color="rgb(86.688232%, 86.378479%, 85.765076%)" stop-opacity="1"/>
<stop offset="0.621094" stop-color="rgb(86.860657%, 86.585999%, 85.984802%)" stop-opacity="1"/>
<stop offset="0.625" stop-color="rgb(87.057495%, 86.82251%, 86.238098%)" stop-opacity="1"/>
<stop offset="0.628906" stop-color="rgb(87.350464%, 87.158203%, 86.58905%)" stop-opacity="1"/>
<stop offset="0.636719" stop-color="rgb(87.739563%, 87.519836%, 86.943054%)" stop-opacity="1"/>
<stop offset="0.644531" stop-color="rgb(88.1073%, 87.823486%, 87.210083%)" stop-opacity="1"/>
<stop offset="0.652344" stop-color="rgb(88.38501%, 88.192749%, 87.512207%)" stop-opacity="1"/>
<stop offset="0.660156" stop-color="rgb(88.589478%, 88.597107%, 87.852478%)" stop-opacity="1"/>
<stop offset="0.667969" stop-color="rgb(88.792419%, 88.917542%, 88.246155%)" stop-opacity="1"/>
<stop offset="0.675781" stop-color="rgb(89.002991%, 89.167786%, 88.668823%)" stop-opacity="1"/>
<stop offset="0.683594" stop-color="rgb(89.309692%, 89.445496%, 89.009094%)" stop-opacity="1"/>
<stop offset="0.691406" stop-color="rgb(89.697266%, 89.741516%, 89.274597%)" stop-opacity="1"/>
<stop offset="0.699219" stop-color="rgb(90.084839%, 90.040588%, 89.543152%)" stop-opacity="1"/>
<stop offset="0.707031" stop-color="rgb(90.466309%, 90.344238%, 89.813232%)" stop-opacity="1"/>
<stop offset="0.714844" stop-color="rgb(90.760803%, 90.711975%, 90.12146%)" stop-opacity="1"/>
<stop offset="0.722656" stop-color="rgb(90.9729%, 91.136169%, 90.466309%)" stop-opacity="1"/>
<stop offset="0.730469" stop-color="rgb(91.27655%, 91.505432%, 90.866089%)" stop-opacity="1"/>
<stop offset="0.738281" stop-color="rgb(91.665649%, 91.815186%, 91.317749%)" stop-opacity="1"/>
<stop offset="0.746094" stop-color="rgb(92.062378%, 92.219543%, 91.815186%)" stop-opacity="1"/>
<stop offset="0.761719" stop-color="rgb(92.358398%, 92.54303%, 92.152405%)" stop-opacity="1"/>
<stop offset="0.765625" stop-color="rgb(92.552185%, 92.697144%, 92.292786%)" stop-opacity="1"/>
<stop offset="0.769531" stop-color="rgb(92.749023%, 92.849731%, 92.430115%)" stop-opacity="1"/>
<stop offset="0.773438" stop-color="rgb(92.944336%, 93.002319%, 92.56897%)" stop-opacity="1"/>
<stop offset="0.777344" stop-color="rgb(93.09845%, 93.145752%, 92.747498%)" stop-opacity="1"/>
<stop offset="0.78125" stop-color="rgb(93.205261%, 93.276978%, 92.970276%)" stop-opacity="1"/>
<stop offset="0.785156" stop-color="rgb(93.305969%, 93.406677%, 93.197632%)" stop-opacity="1"/>
<stop offset="0.789062" stop-color="rgb(93.406677%, 93.534851%, 93.424988%)" stop-opacity="1"/>
<stop offset="0.792969" stop-color="rgb(93.545532%, 93.675232%, 93.618774%)" stop-opacity="1"/>
<stop offset="0.796875" stop-color="rgb(93.734741%, 93.829346%, 93.768311%)" stop-opacity="1"/>
<stop offset="0.800781" stop-color="rgb(93.93158%, 93.983459%, 93.908691%)" stop-opacity="1"/>
<stop offset="0.804688" stop-color="rgb(94.128418%, 94.137573%, 94.049072%)" stop-opacity="1"/>
<stop offset="0.808594" stop-color="rgb(94.325256%, 94.294739%, 94.226074%)" stop-opacity="1"/>
<stop offset="0.8125" stop-color="rgb(94.522095%, 94.454956%, 94.450378%)" stop-opacity="1"/>
<stop offset="0.816406" stop-color="rgb(94.818115%, 94.694519%, 94.802856%)" stop-opacity="1"/>
<stop offset="0.824219" stop-color="rgb(95.217896%, 95.091248%, 95.231628%)" stop-opacity="1"/>
<stop offset="0.832031" stop-color="rgb(95.623779%, 95.581055%, 95.610046%)" stop-opacity="1"/>
<stop offset="0.839844" stop-color="rgb(95.947266%, 95.982361%, 95.94574%)" stop-opacity="1"/>
<stop offset="0.847656" stop-color="rgb(96.273804%, 96.391296%, 96.376038%)" stop-opacity="1"/>
<stop offset="0.863281" stop-color="rgb(96.682739%, 96.907043%, 96.940613%)" stop-opacity="1"/>
<stop offset="0.878906" stop-color="rgb(97.061157%, 97.343445%, 97.407532%)" stop-opacity="1"/>
<stop offset="0.890625" stop-color="rgb(97.331238%, 97.55249%, 97.595215%)" stop-opacity="1"/>
<stop offset="0.894531" stop-color="rgb(97.523499%, 97.613525%, 97.605896%)" stop-opacity="1"/>
<stop offset="0.898438" stop-color="rgb(97.715759%, 97.673035%, 97.616577%)" stop-opacity="1"/>
<stop offset="0.902344" stop-color="rgb(97.993469%, 97.879028%, 97.796631%)" stop-opacity="1"/>
<stop offset="0.914062" stop-color="rgb(98.278809%, 98.184204%, 98.11554%)" stop-opacity="1"/>
<stop offset="0.921875" stop-color="rgb(98.484802%, 98.443604%, 98.400879%)" stop-opacity="1"/>
<stop offset="0.929688" stop-color="rgb(98.794556%, 98.83728%, 98.834229%)" stop-opacity="1"/>
<stop offset="0.945312" stop-color="rgb(99.156189%, 99.29657%, 99.339294%)" stop-opacity="1"/>
<stop offset="0.957031" stop-color="rgb(99.414062%, 99.62616%, 99.702454%)" stop-opacity="1"/>
<stop offset="0.964844" stop-color="rgb(99.714661%, 99.865723%, 99.92218%)" stop-opacity="1"/>
<stop offset="0.980469" stop-color="rgb(99.95575%, 99.984741%, 99.996948%)" stop-opacity="1"/>
<stop offset="1" stop-color="rgb(100%, 100%, 100%)" stop-opacity="1"/>
</radialGradient>
</defs>
<path fill-rule="nonzero" fill="rgb(12.860107%, 11.213684%, 11.195374%)" fill-opacity="1" d="M 2030.320312 183.179688 L 2049.269531 187.960938 C 2045.300781 203.519531 2038.148438 215.390625 2027.828125 223.558594 C 2017.511719 231.730469 2004.898438 235.808594 1989.988281 235.808594 C 1974.558594 235.808594 1962.011719 232.671875 1952.339844 226.390625 C 1942.679688 220.109375 1935.320312 211.011719 1930.269531 199.101562 C 1925.230469 187.179688 1922.710938 174.390625 1922.710938 160.71875 C 1922.710938 145.808594 1925.550781 132.800781 1931.25 121.699219 C 1936.949219 110.601562 1945.050781 102.171875 1955.570312 96.410156 C 1966.078125 90.648438 1977.648438 87.769531 1990.28125 87.769531 C 2004.609375 87.769531 2016.648438 91.410156 2026.421875 98.710938 C 2036.179688 106 2042.980469 116.25 2046.828125 129.46875 L 2028.171875 133.859375 C 2024.851562 123.449219 2020.039062 115.859375 2013.71875 111.109375 C 2007.410156 106.359375 1999.460938 103.980469 1989.890625 103.980469 C 1978.890625 103.980469 1969.691406 106.609375 1962.300781 111.890625 C 1954.921875 117.160156 1949.71875 124.238281 1946.730469 133.128906 C 1943.730469 142.019531 1942.238281 151.179688 1942.238281 160.621094 C 1942.238281 172.789062 1944.011719 183.421875 1947.558594 192.5 C 1951.109375 201.589844 1956.621094 208.371094 1964.109375 212.859375 C 1971.601562 217.359375 1979.699219 219.601562 1988.429688 219.601562 C 1999.039062 219.601562 2008.019531 216.539062 2015.378906 210.421875 C 2022.738281 204.308594 2027.71875 195.21875 2030.320312 183.179688 "/>
<path fill-rule="nonzero" fill="rgb(12.860107%, 11.213684%, 11.195374%)" fill-opacity="1" d="M 2136.570312 181.320312 C 2130.191406 183.929688 2120.621094 186.140625 2107.859375 187.960938 C 2100.628906 189.011719 2095.519531 190.179688 2092.53125 191.480469 C 2089.53125 192.78125 2087.21875 194.691406 2085.601562 197.191406 C 2083.96875 199.699219 2083.148438 202.480469 2083.148438 205.539062 C 2083.148438 210.230469 2084.929688 214.140625 2088.480469 217.261719 C 2092.019531 220.390625 2097.21875 221.949219 2104.050781 221.949219 C 2110.820312 221.949219 2116.851562 220.46875 2122.121094 217.5 C 2127.390625 214.539062 2131.269531 210.488281 2133.738281 205.351562 C 2135.628906 201.371094 2136.570312 195.519531 2136.570312 187.769531 Z M 2138.039062 220.578125 C 2131.53125 226.109375 2125.261719 230.019531 2119.238281 232.300781 C 2113.21875 234.578125 2106.75 235.71875 2099.851562 235.71875 C 2088.460938 235.71875 2079.699219 232.929688 2073.578125 227.371094 C 2067.460938 221.800781 2064.398438 214.691406 2064.398438 206.03125 C 2064.398438 200.949219 2065.558594 196.308594 2067.871094 192.109375 C 2070.179688 187.910156 2073.210938 184.539062 2076.949219 182.011719 C 2080.699219 179.46875 2084.910156 177.550781 2089.601562 176.238281 C 2093.050781 175.328125 2098.261719 174.449219 2105.21875 173.609375 C 2119.421875 171.910156 2129.871094 169.898438 2136.570312 167.550781 C 2136.640625 165.140625 2136.671875 163.609375 2136.671875 162.960938 C 2136.671875 155.800781 2135.011719 150.761719 2131.691406 147.828125 C 2127.199219 143.859375 2120.519531 141.871094 2111.671875 141.871094 C 2103.398438 141.871094 2097.300781 143.320312 2093.359375 146.210938 C 2089.421875 149.109375 2086.511719 154.238281 2084.621094 161.601562 L 2067.429688 159.25 C 2068.988281 151.898438 2071.570312 145.960938 2075.148438 141.429688 C 2078.730469 136.910156 2083.898438 133.421875 2090.671875 130.980469 C 2097.441406 128.539062 2105.289062 127.320312 2114.210938 127.320312 C 2123.058594 127.320312 2130.261719 128.359375 2135.789062 130.441406 C 2141.320312 132.53125 2145.390625 135.148438 2148 138.308594 C 2150.601562 141.460938 2152.421875 145.449219 2153.46875 150.269531 C 2154.050781 153.261719 2154.351562 158.671875 2154.351562 166.480469 L 2154.351562 189.921875 C 2154.351562 206.261719 2154.71875 216.589844 2155.46875 220.921875 C 2156.21875 225.25 2157.699219 229.398438 2159.910156 233.371094 L 2141.550781 233.371094 C 2139.730469 229.730469 2138.558594 225.460938 2138.039062 220.578125 "/>
<path fill-rule="nonzero" fill="rgb(12.860107%, 11.213684%, 11.195374%)" fill-opacity="1" d="M 2181.398438 233.371094 L 2181.398438 129.660156 L 2197.21875 129.660156 L 2197.21875 145.390625 C 2201.25 138.03125 2204.980469 133.179688 2208.398438 130.828125 C 2211.820312 128.488281 2215.578125 127.320312 2219.679688 127.320312 C 2225.601562 127.320312 2231.621094 129.210938 2237.738281 132.980469 L 2231.691406 149.289062 C 2227.390625 146.75 2223.101562 145.480469 2218.800781 145.480469 C 2214.960938 145.480469 2211.511719 146.640625 2208.449219 148.949219 C 2205.390625 151.261719 2203.210938 154.46875 2201.898438 158.570312 C 2199.949219 164.820312 2198.96875 171.648438 2198.96875 179.078125 L 2198.96875 233.371094 L 2181.398438 233.371094 "/>
<path fill-rule="nonzero" fill="rgb(12.860107%, 11.213684%, 11.195374%)" fill-opacity="1" d="M 2296.730469 202.421875 L 2314.109375 199.679688 C 2315.089844 206.648438 2317.808594 211.988281 2322.269531 215.699219 C 2326.71875 219.410156 2332.960938 221.261719 2340.96875 221.261719 C 2349.039062 221.261719 2355.03125 219.621094 2358.941406 216.328125 C 2362.839844 213.039062 2364.789062 209.191406 2364.789062 204.761719 C 2364.789062 200.789062 2363.070312 197.660156 2359.621094 195.390625 C 2357.210938 193.820312 2351.21875 191.839844 2341.648438 189.429688 C 2328.761719 186.171875 2319.820312 183.359375 2314.839844 180.980469 C 2309.859375 178.601562 2306.089844 175.320312 2303.519531 171.121094 C 2300.941406 166.921875 2299.660156 162.28125 2299.660156 157.199219 C 2299.660156 152.578125 2300.71875 148.300781 2302.828125 144.359375 C 2304.949219 140.421875 2307.828125 137.148438 2311.46875 134.539062 C 2314.210938 132.53125 2317.941406 130.820312 2322.660156 129.421875 C 2327.378906 128.019531 2332.441406 127.320312 2337.839844 127.320312 C 2345.980469 127.320312 2353.128906 128.488281 2359.28125 130.828125 C 2365.429688 133.179688 2369.96875 136.351562 2372.898438 140.359375 C 2375.828125 144.359375 2377.851562 149.710938 2378.960938 156.421875 L 2361.769531 158.761719 C 2360.988281 153.429688 2358.71875 149.261719 2354.980469 146.261719 C 2351.238281 143.269531 2345.949219 141.769531 2339.109375 141.769531 C 2331.039062 141.769531 2325.28125 143.109375 2321.828125 145.769531 C 2318.378906 148.449219 2316.648438 151.570312 2316.648438 155.148438 C 2316.648438 157.429688 2317.371094 159.480469 2318.800781 161.300781 C 2320.230469 163.191406 2322.480469 164.75 2325.539062 165.988281 C 2327.289062 166.640625 2332.46875 168.140625 2341.058594 170.480469 C 2353.5 173.800781 2362.171875 176.519531 2367.089844 178.640625 C 2372 180.75 2375.859375 183.828125 2378.660156 187.859375 C 2381.460938 191.898438 2382.859375 196.910156 2382.859375 202.898438 C 2382.859375 208.761719 2381.148438 214.28125 2377.730469 219.460938 C 2374.320312 224.628906 2369.378906 228.640625 2362.941406 231.46875 C 2356.488281 234.300781 2349.199219 235.71875 2341.058594 235.71875 C 2327.589844 235.71875 2317.320312 232.921875 2310.25 227.320312 C 2303.191406 221.71875 2298.679688 213.421875 2296.730469 202.421875 "/>
<path fill-rule="nonzero" fill="rgb(12.860107%, 11.213684%, 11.195374%)" fill-opacity="1" d="M 2417.039062 171.558594 L 2474.949219 171.558594 C 2474.171875 162.828125 2471.960938 156.289062 2468.308594 151.929688 C 2462.710938 145.160156 2455.449219 141.769531 2446.53125 141.769531 C 2438.460938 141.769531 2431.671875 144.46875 2426.171875 149.878906 C 2420.671875 155.28125 2417.628906 162.511719 2417.039062 171.558594 Z M 2474.761719 199.96875 L 2492.921875 202.21875 C 2490.050781 212.828125 2484.75 221.070312 2477 226.929688 C 2469.25 232.789062 2459.359375 235.71875 2447.308594 235.71875 C 2432.140625 235.71875 2420.121094 231.050781 2411.230469 221.699219 C 2402.339844 212.359375 2397.898438 199.261719 2397.898438 182.398438 C 2397.898438 164.949219 2402.390625 151.410156 2411.378906 141.769531 C 2420.359375 132.140625 2432.011719 127.320312 2446.339844 127.320312 C 2460.210938 127.320312 2471.53125 132.039062 2480.320312 141.480469 C 2489.109375 150.921875 2493.511719 164.199219 2493.511719 181.320312 C 2493.511719 182.359375 2493.46875 183.929688 2493.410156 186.011719 L 2416.058594 186.011719 C 2416.710938 197.398438 2419.941406 206.128906 2425.730469 212.179688 C 2431.53125 218.238281 2438.75 221.261719 2447.410156 221.261719 C 2453.859375 221.261719 2459.359375 219.570312 2463.921875 216.191406 C 2468.46875 212.800781 2472.089844 207.398438 2474.761719 199.96875 "/>
<path fill-rule="nonzero" fill="rgb(12.860107%, 11.213684%, 11.195374%)" fill-opacity="1" d="M 2581.199219 181.320312 C 2574.820312 183.929688 2565.25 186.140625 2552.488281 187.960938 C 2545.261719 189.011719 2540.148438 190.179688 2537.160156 191.480469 C 2534.160156 192.78125 2531.851562 194.691406 2530.21875 197.191406 C 2528.601562 199.699219 2527.78125 202.480469 2527.78125 205.539062 C 2527.78125 210.230469 2529.558594 214.140625 2533.109375 217.261719 C 2536.648438 220.390625 2541.851562 221.949219 2548.679688 221.949219 C 2555.449219 221.949219 2561.46875 220.46875 2566.75 217.5 C 2572.019531 214.539062 2575.890625 210.488281 2578.371094 205.351562 C 2580.261719 201.371094 2581.199219 195.519531 2581.199219 187.769531 Z M 2582.671875 220.578125 C 2576.160156 226.109375 2569.890625 230.019531 2563.871094 232.300781 C 2557.851562 234.578125 2551.378906 235.71875 2544.480469 235.71875 C 2533.089844 235.71875 2524.328125 232.929688 2518.210938 227.371094 C 2512.089844 221.800781 2509.03125 214.691406 2509.03125 206.03125 C 2509.03125 200.949219 2510.191406 196.308594 2512.5 192.109375 C 2514.808594 187.910156 2517.839844 184.539062 2521.578125 182.011719 C 2525.328125 179.46875 2529.539062 177.550781 2534.230469 176.238281 C 2537.679688 175.328125 2542.890625 174.449219 2549.851562 173.609375 C 2564.050781 171.910156 2574.5 169.898438 2581.199219 167.550781 C 2581.269531 165.140625 2581.300781 163.609375 2581.300781 162.960938 C 2581.300781 155.800781 2579.640625 150.761719 2576.320312 147.828125 C 2571.828125 143.859375 2565.148438 141.871094 2556.300781 141.871094 C 2548.03125 141.871094 2541.929688 143.320312 2537.988281 146.210938 C 2534.050781 149.109375 2531.140625 154.238281 2529.25 161.601562 L 2512.058594 159.25 C 2513.621094 151.898438 2516.199219 145.960938 2519.78125 141.429688 C 2523.359375 136.910156 2528.53125 133.421875 2535.300781 130.980469 C 2542.070312 128.539062 2549.921875 127.320312 2558.839844 127.320312 C 2567.691406 127.320312 2574.890625 128.359375 2580.421875 130.441406 C 2585.949219 132.53125 2590.019531 135.148438 2592.628906 138.308594 C 2595.230469 141.460938 2597.050781 145.449219 2598.101562 150.269531 C 2598.679688 153.261719 2598.96875 158.671875 2598.96875 166.480469 L 2598.96875 189.921875 C 2598.96875 206.261719 2599.351562 216.589844 2600.101562 220.921875 C 2600.851562 225.25 2602.328125 229.398438 2604.539062 233.371094 L 2586.179688 233.371094 C 2584.359375 229.730469 2583.191406 225.460938 2582.671875 220.578125 "/>
<path fill-rule="nonzero" fill="rgb(12.860107%, 11.213684%, 11.195374%)" fill-opacity="1" d="M 2664.601562 217.648438 L 2667.140625 233.179688 C 2662.191406 234.21875 2657.761719 234.738281 2653.859375 234.738281 C 2647.480469 234.738281 2642.53125 233.730469 2639.011719 231.710938 C 2635.5 229.699219 2633.019531 227.039062 2631.589844 223.75 C 2630.160156 220.46875 2629.441406 213.550781 2629.441406 203 L 2629.441406 143.328125 L 2616.550781 143.328125 L 2616.550781 129.660156 L 2629.441406 129.660156 L 2629.441406 103.980469 L 2646.921875 93.429688 L 2646.921875 129.660156 L 2664.601562 129.660156 L 2664.601562 143.328125 L 2646.921875 143.328125 L 2646.921875 203.980469 C 2646.921875 208.988281 2647.230469 212.210938 2647.851562 213.648438 C 2648.46875 215.078125 2649.480469 216.21875 2650.878906 217.058594 C 2652.28125 217.910156 2654.28125 218.328125 2656.878906 218.328125 C 2658.839844 218.328125 2661.410156 218.109375 2664.601562 217.648438 "/>
<path fill-rule="nonzero" fill="rgb(12.860107%, 11.213684%, 11.195374%)" fill-opacity="1" d="M 2737.449219 233.371094 L 2737.449219 129.660156 L 2755.03125 129.660156 L 2755.03125 233.371094 Z M 2737.449219 110.421875 L 2737.449219 90.210938 L 2755.03125 90.210938 L 2755.03125 110.421875 L 2737.449219 110.421875 "/>
<path fill-rule="nonzero" fill="rgb(12.860107%, 11.213684%, 11.195374%)" fill-opacity="1" d="M 2849.460938 195.390625 L 2866.75 197.628906 C 2864.859375 209.539062 2860.03125 218.871094 2852.25 225.609375 C 2844.46875 232.351562 2834.910156 235.71875 2823.578125 235.71875 C 2809.390625 235.71875 2797.980469 231.078125 2789.359375 221.800781 C 2780.730469 212.519531 2776.421875 199.230469 2776.421875 181.910156 C 2776.421875 170.710938 2778.269531 160.910156 2781.980469 152.511719 C 2785.691406 144.109375 2791.339844 137.820312 2798.929688 133.621094 C 2806.511719 129.421875 2814.761719 127.320312 2823.679688 127.320312 C 2834.941406 127.320312 2844.160156 130.171875 2851.320312 135.859375 C 2858.480469 141.558594 2863.070312 149.648438 2865.089844 160.128906 L 2848 162.769531 C 2846.371094 155.800781 2843.488281 150.558594 2839.359375 147.039062 C 2835.21875 143.53125 2830.21875 141.769531 2824.371094 141.769531 C 2815.511719 141.769531 2808.320312 144.941406 2802.78125 151.289062 C 2797.25 157.640625 2794.480469 167.679688 2794.480469 181.421875 C 2794.480469 195.351562 2797.148438 205.480469 2802.488281 211.789062 C 2807.828125 218.109375 2814.789062 221.261719 2823.390625 221.261719 C 2830.289062 221.261719 2836.050781 219.148438 2840.671875 214.921875 C 2845.300781 210.691406 2848.230469 204.171875 2849.460938 195.390625 "/>
<path fill-rule="nonzero" fill="rgb(12.860107%, 11.213684%, 11.195374%)" fill-opacity="1" d="M 2893.308594 181.519531 C 2893.308594 194.800781 2896.210938 204.738281 2902 211.351562 C 2907.800781 217.960938 2915.089844 221.261719 2923.878906 221.261719 C 2932.601562 221.261719 2939.859375 217.941406 2945.648438 211.300781 C 2951.449219 204.660156 2954.351562 194.539062 2954.351562 180.929688 C 2954.351562 168.109375 2951.429688 158.390625 2945.609375 151.78125 C 2939.78125 145.171875 2932.539062 141.871094 2923.878906 141.871094 C 2915.089844 141.871094 2907.800781 145.160156 2902 151.730469 C 2896.210938 158.308594 2893.308594 168.238281 2893.308594 181.519531 Z M 2875.238281 181.519531 C 2875.238281 162.308594 2880.578125 148.089844 2891.261719 138.839844 C 2900.179688 131.160156 2911.050781 127.320312 2923.878906 127.320312 C 2938.128906 127.320312 2949.789062 131.988281 2958.839844 141.328125 C 2967.890625 150.671875 2972.410156 163.578125 2972.410156 180.050781 C 2972.410156 193.398438 2970.410156 203.898438 2966.410156 211.550781 C 2962.398438 219.199219 2956.578125 225.140625 2948.929688 229.371094 C 2941.28125 233.601562 2932.929688 235.71875 2923.878906 235.71875 C 2909.359375 235.71875 2897.621094 231.058594 2888.671875 221.75 C 2879.71875 212.441406 2875.238281 199.03125 2875.238281 181.519531 "/>
<path fill-rule="nonzero" fill="rgb(12.860107%, 11.213684%, 11.195374%)" fill-opacity="1" d="M 2993.019531 233.371094 L 2993.019531 129.660156 L 3008.839844 129.660156 L 3008.839844 144.410156 C 3016.460938 133.019531 3027.460938 127.320312 3041.851562 127.320312 C 3048.101562 127.320312 3053.839844 128.441406 3059.078125 130.691406 C 3064.320312 132.929688 3068.25 135.878906 3070.851562 139.519531 C 3073.449219 143.171875 3075.28125 147.5 3076.320312 152.511719 C 3076.96875 155.769531 3077.289062 161.46875 3077.289062 169.601562 L 3077.289062 233.371094 L 3059.71875 233.371094 L 3059.71875 170.289062 C 3059.71875 163.128906 3059.03125 157.769531 3057.671875 154.21875 C 3056.300781 150.671875 3053.871094 147.839844 3050.390625 145.730469 C 3046.910156 143.609375 3042.820312 142.550781 3038.128906 142.550781 C 3030.648438 142.550781 3024.191406 144.929688 3018.75 149.679688 C 3013.308594 154.441406 3010.601562 163.449219 3010.601562 176.730469 L 3010.601562 233.371094 L 2993.019531 233.371094 "/>
<g clip-path="url(#clip-0)">
<g clip-path="url(#clip-1)">
<g clip-path="url(#clip-2)">
<path fill-rule="nonzero" fill="url(#radial-pattern-0)" d="M 1985.941406 4319.25 L 1985.941406 4412.230469 L 3017.878906 4412.230469 L 3017.878906 4319.25 Z M 1985.941406 4319.25 "/>
</g>
</g>
</g>
<path fill-rule="nonzero" fill="rgb(12.860107%, 11.213684%, 11.195374%)" fill-opacity="1" d="M 2312.738281 1183.011719 L 2256.511719 1183.011719 L 2256.511719 958.039062 L 2312.738281 958.039062 L 2312.738281 1183.011719 "/>
<path fill-rule="nonzero" fill="rgb(12.860107%, 11.213684%, 11.195374%)" fill-opacity="1" d="M 3710.441406 3419.199219 C 3684.480469 3326.96875 3519.019531 3280.878906 3383.800781 3345.601562 C 3248.570312 3410.308594 2915.011719 3428.539062 2500 3428.539062 C 2084.988281 3428.539062 1751.429688 3410.308594 1616.199219 3345.601562 C 1480.980469 3280.878906 1315.519531 3326.96875 1289.558594 3419.199219 C 1226.449219 3511.988281 1291.660156 3785.128906 1426.878906 3970.710938 C 1562.109375 4156.289062 1760.449219 4134.878906 2500 4134.878906 C 3239.550781 4134.878906 3437.890625 4156.289062 3573.121094 3970.710938 C 3708.339844 3785.128906 3773.550781 3511.988281 3710.441406 3419.199219 "/>
<path fill-rule="nonzero" fill="rgb(12.860107%, 11.213684%, 11.195374%)" fill-opacity="1" d="M 2986.820312 892.871094 C 2986.820312 892.871094 2958.398438 614.429688 2901.578125 486.578125 C 2844.75 358.71875 2716.898438 364.410156 2500 364.410156 C 2283.101562 364.410156 2155.25 358.71875 2098.421875 486.578125 C 2041.601562 614.429688 2013.191406 892.871094 2013.191406 892.871094 C 2013.191406 949.691406 2004.261719 1034.289062 2115.46875 1043.449219 L 2884.53125 1043.449219 C 2995.738281 1034.289062 2986.820312 949.691406 2986.820312 892.871094 "/>
<path fill-rule="nonzero" fill="rgb(12.860107%, 11.213684%, 11.195374%)" fill-opacity="1" d="M 2687.261719 1183.011719 L 2743.488281 1183.011719 L 2743.488281 958.039062 L 2687.261719 958.039062 L 2687.261719 1183.011719 "/>
<path fill-rule="nonzero" fill="rgb(12.860107%, 11.213684%, 11.195374%)" fill-opacity="1" d="M 2985.390625 3261.328125 C 2995.980469 3237.859375 3005.671875 3214 3014.269531 3189.761719 C 3022.808594 3165.488281 3030.460938 3140.929688 3037.378906 3116.171875 C 3064.628906 3016.96875 3080.101562 2914.878906 3088.339844 2812.398438 C 3096.828125 2709.890625 3098.289062 2606.828125 3095.511719 2503.949219 C 3092.570312 2401.050781 3085.199219 2298.269531 3074.390625 2195.859375 C 3068.960938 2144.660156 3062.691406 2093.539062 3055.480469 2042.570312 C 3048.308594 1991.589844 3040.429688 1940.710938 3031.570312 1890.03125 C 3022.699219 1839.328125 3012.921875 1788.929688 3002.191406 1738.621094 C 2991.46875 1688.289062 2980.230469 1638.171875 2966.539062 1589.578125 C 2959.558594 1565.398438 2951.890625 1541.640625 2943.128906 1518.878906 C 2934.179688 1496.300781 2923.820312 1474.890625 2911.179688 1456.539062 C 2909.71875 1454.089844 2907.960938 1452.03125 2906.289062 1449.871094 L 2901.269531 1443.398438 C 2899.609375 1441.230469 2897.648438 1439.46875 2895.878906 1437.460938 C 2894.039062 1435.550781 2892.300781 1433.5 2890.410156 1431.660156 C 2882.628906 1424.609375 2874.671875 1417.898438 2865.511719 1412.710938 C 2847.550781 1401.921875 2826.378906 1394.78125 2803.378906 1390.148438 C 2780.390625 1385.53125 2755.878906 1383.089844 2730.980469 1381.539062 C 2706.070312 1379.960938 2680.609375 1379.449219 2655.019531 1379.179688 C 2603.789062 1378.699219 2551.949219 1379.261719 2500 1379.300781 C 2448.050781 1379.300781 2396.210938 1378.710938 2344.980469 1379.191406 C 2319.390625 1379.46875 2293.929688 1379.96875 2269.019531 1381.558594 C 2244.121094 1383.109375 2219.609375 1385.539062 2196.628906 1390.199219 C 2173.628906 1394.828125 2152.480469 1401.960938 2134.519531 1412.761719 C 2125.359375 1417.941406 2117.410156 1424.648438 2109.621094 1431.691406 C 2107.738281 1433.539062 2106 1435.578125 2104.160156 1437.5 C 2102.390625 1439.5 2100.429688 1441.261719 2098.769531 1443.429688 L 2093.75 1449.898438 C 2092.078125 1452.058594 2090.320312 1454.121094 2088.859375 1456.558594 C 2076.21875 1474.910156 2065.859375 1496.320312 2056.910156 1518.898438 C 2048.148438 1541.660156 2040.539062 1565.429688 2033.53125 1589.609375 C 2019.839844 1638.179688 2008.601562 1688.300781 1997.878906 1738.628906 C 1987.140625 1788.941406 1977.410156 1839.351562 1968.511719 1890.050781 C 1959.671875 1940.730469 1951.75 1991.601562 1944.621094 2042.578125 C 1937.410156 2093.550781 1931.140625 2144.671875 1925.699219 2195.871094 C 1914.929688 2298.28125 1907.5 2401.050781 1904.589844 2503.949219 C 1901.800781 2606.828125 1903.25 2709.878906 1911.75 2812.390625 C 1919.980469 2914.859375 1935.410156 3016.960938 1962.671875 3116.160156 C 1969.578125 3140.921875 1977.230469 3165.46875 1985.761719 3189.75 C 1994.371094 3213.988281 2004.039062 3237.839844 2014.628906 3261.320312 C 2025.359375 3285.308594 2037.421875 3308.730469 2050.800781 3331.421875 C 2196.128906 3344.121094 2357.128906 3337.101562 2500 3337.101562 C 2642.878906 3337.101562 2803.878906 3344.121094 2949.21875 3331.421875 C 2962.601562 3308.730469 2974.671875 3285.320312 2985.390625 3261.328125 "/>
<path fill-rule="nonzero" fill="rgb(12.860107%, 11.213684%, 11.195374%)" fill-opacity="1" d="M 3231.660156 1338.441406 C 3134.671875 1129.949219 3051.550781 1140.980469 2500 1140.980469 C 1948.449219 1140.980469 1865.328125 1129.949219 1768.339844 1338.441406 C 1408.121094 2517.5 1525.878906 2898.539062 1643.648438 3135.789062 C 1708.53125 3266.5 1863.820312 3314.269531 2044.199219 3330.828125 C 2030.191406 3309.878906 2017.210938 3288.179688 2005.488281 3265.800781 C 1993.398438 3242.699219 1982.351562 3219.03125 1972.28125 3194.949219 C 1962.300781 3170.828125 1953.191406 3146.351562 1944.808594 3121.609375 C 1936.609375 3096.820312 1929.070312 3071.789062 1922.390625 3046.539062 C 1915.839844 3021.269531 1909.761719 2995.859375 1904.410156 2970.289062 C 1893.761719 2919.171875 1885.28125 2867.589844 1878.851562 2815.78125 C 1866.050781 2712.128906 1860.78125 2607.71875 1860.320312 2503.421875 C 1860.078125 2451.269531 1861.191406 2399.121094 1863.371094 2347.03125 C 1865.5 2294.929688 1868.710938 2242.890625 1872.980469 2190.929688 C 1877.28125 2138.980469 1882.449219 2087.101562 1888.558594 2035.328125 C 1894.71875 1983.550781 1901.910156 1931.898438 1909.929688 1880.351562 C 1918.019531 1828.839844 1926.921875 1777.308594 1937.269531 1726.179688 C 1947.480469 1675.050781 1958.230469 1623.851562 1971.980469 1572.5 C 1979.050781 1546.828125 1986.878906 1521.109375 1996.601562 1495.449219 C 2006.550781 1469.851562 2018.460938 1444.101562 2035.011719 1419.601562 C 2036.898438 1416.480469 2039.261719 1413.53125 2041.53125 1410.550781 L 2048.378906 1401.640625 C 2050.660156 1398.671875 2053.421875 1395.949219 2055.941406 1393.109375 C 2058.550781 1390.320312 2061.050781 1387.449219 2063.769531 1384.761719 C 2074.960938 1374.21875 2087.011719 1364.21875 2100.300781 1356.421875 C 2126.699219 1340.28125 2155.449219 1330.878906 2183.101562 1325.070312 C 2210.878906 1319.269531 2238.070312 1316.699219 2264.828125 1314.921875 C 2291.628906 1313.160156 2317.980469 1312.578125 2344.191406 1312.230469 C 2396.570312 1311.621094 2448.339844 1312.03125 2500 1311.96875 C 2551.660156 1312.070312 2603.429688 1311.628906 2655.808594 1312.25 C 2682.019531 1312.601562 2708.371094 1313.171875 2735.171875 1314.941406 C 2761.929688 1316.71875 2789.121094 1319.28125 2816.890625 1325.121094 C 2844.53125 1330.929688 2873.28125 1340.328125 2899.671875 1356.460938 C 2912.960938 1364.261719 2925 1374.261719 2936.199219 1384.789062 C 2938.921875 1387.488281 2941.421875 1390.359375 2944.019531 1393.148438 C 2946.539062 1395.988281 2949.300781 1398.699219 2951.578125 1401.671875 L 2958.429688 1410.578125 C 2960.699219 1413.558594 2963.050781 1416.511719 2964.949219 1419.628906 C 2981.5 1444.121094 2993.410156 1469.871094 3003.359375 1495.46875 C 3013.078125 1521.121094 3020.851562 1546.859375 3027.941406 1572.519531 C 3041.699219 1623.871094 3052.449219 1675.070312 3062.660156 1726.191406 C 3073.019531 1777.328125 3081.871094 1828.859375 3089.988281 1880.371094 C 3106.160156 1983.441406 3118.390625 2087.03125 3126.929688 2190.941406 C 3131.210938 2242.890625 3134.378906 2294.941406 3136.53125 2347.03125 C 3138.730469 2399.121094 3139.808594 2451.269531 3139.578125 2503.421875 C 3139.128906 2607.71875 3133.871094 2712.121094 3121.058594 2815.769531 C 3114.640625 2867.578125 3106.171875 2919.160156 3095.53125 2970.28125 C 3090.179688 2995.839844 3084.109375 3021.25 3077.558594 3046.53125 C 3070.878906 3071.78125 3063.320312 3096.800781 3055.140625 3121.589844 C 3046.761719 3146.328125 3037.648438 3170.820312 3027.679688 3194.929688 C 3017.609375 3219.019531 3006.570312 3242.679688 2994.488281 3265.789062 C 2982.769531 3288.171875 2969.789062 3309.871094 2955.78125 3330.828125 C 3136.171875 3314.269531 3291.46875 3266.5 3356.351562 3135.789062 C 3474.121094 2898.539062 3591.878906 2517.5 3231.660156 1338.441406 "/>
</svg>
